<svg width="1000" height="1000" viewBox="0 0 1000 1000" fill="none" xmlns="http://www.w3.org/2000/svg">
<rect width="1000" height="1000" rx="93" fill="#5F57FA"/>
<path d="M499.991 145.5C302.312 145.5 141.5 306.311 141.5 503.994C141.5 701.683 302.311 862.5 499.991 862.5C697.682 862.5 858.5 701.684 858.5 503.994C858.5 306.31 697.682 145.5 499.991 145.5ZM499.991 807.183C332.833 807.183 196.823 671.163 196.823 504C196.823 336.837 332.833 200.828 499.991 200.828C667.156 200.828 803.177 336.843 803.177 504C803.177 671.163 667.156 807.183 499.991 807.183Z" fill="white" stroke="white" stroke-width="21"/>
<path d="M497.009 324H496.997C430.765 325.641 370 369.025 370 450.843C370 498.696 398.193 527.11 420.079 549.167C433.274 562.466 444.177 573.454 445.226 585H548.774C549.823 573.454 560.726 562.466 573.921 549.167C595.807 527.11 624 498.696 624 450.843C624 369.025 563.235 325.641 497.009 324Z" fill="white"/>
<path d="M497.009 324H496.997C430.765 325.641 370 369.025 370 450.843C370 498.696 398.193 527.11 420.079 549.167C433.274 562.466 444.177 573.454 445.226 585H548.774C549.823 573.454 560.726 562.466 573.921 549.167C595.807 527.11 624 498.696 624 450.843C624 369.025 563.235 325.641 497.009 324Z" stroke="white"/>
<path d="M497 676C527.931 676 553 648.704 553 615H441C441 648.704 466.069 676 497 676Z" fill="white"/>
<path d="M497 676C527.931 676 553 648.704 553 615H441C441 648.704 466.069 676 497 676Z" stroke="white"/>
</svg>
